<svg width="1200" height="675" viewBox="0 0 1200 675" fill="none" xmlns="http://www.w3.org/2000/svg">
  <defs>
    <linearGradient id="bg" x1="0" y1="0" x2="1200" y2="675" gradientUnits="userSpaceOnUse">
      <stop stop-color="#0B3B2B"/>
      <stop offset="0.55" stop-color="#0A2D22"/>
      <stop offset="1" stop-color="#071F18"/>
    </linearGradient>
    <radialGradient id="glow" cx="0" cy="0" r="1" gradientUnits="userSpaceOnUse" gradientTransform="translate(340 210) rotate(45) scale(520 520)">
      <stop stop-color="#A78BFA" stop-opacity="0.22"/>
      <stop offset="1" stop-color="#A78BFA" stop-opacity="0"/>
    </radialGradient>
    <pattern id="grid" width="48" height="48" patternUnits="userSpaceOnUse">
      <path d="M48 0H0V48" stroke="#FFFFFF" stroke-opacity="0.06"/>
    </pattern>
  </defs>

  <rect width="1200" height="675" fill="url(#bg)"/>
  <rect width="1200" height="675" fill="url(#grid)"/>
  <rect width="1200" height="675" fill="url(#glow)"/>

  <rect x="90" y="86" width="1020" height="503" rx="28" fill="#0B251D" fill-opacity="0.55" stroke="#FFFFFF" stroke-opacity="0.10"/>

  <!-- icon: EV charger + bolt -->
  <g>
    <rect x="520" y="220" width="160" height="260" rx="22" fill="#071F18" stroke="#C4B5FD" stroke-opacity="0.60" stroke-width="4"/>
    <rect x="548" y="250" width="104" height="70" rx="14" fill="#0F3B2B" stroke="#C4B5FD" stroke-opacity="0.45" stroke-width="3"/>
    <path d="M700 270C735 270 760 295 760 330V420C760 440 776 456 796 456" stroke="#C4B5FD" stroke-opacity="0.70" stroke-width="10" stroke-linecap="round"/>
    <path d="M796 456V405" stroke="#C4B5FD" stroke-opacity="0.70" stroke-width="10" stroke-linecap="round"/>
    <path d="M598 336L565 392H598L574 444L636 368H600L598 336Z" fill="#C4B5FD" fill-opacity="0.22" stroke="#C4B5FD" stroke-opacity="0.55" stroke-width="4" stroke-linejoin="round"/>
  </g>

  <path d="M230 160C330 100 420 90 520 130C610 167 690 150 760 120C820 92 920 100 1000 170C1080 240 1100 330 1040 410C970 505 860 520 740 500C620 480 560 520 460 550C350 583 240 570 170 500C90 420 120 230 230 160Z" fill="#C4B5FD" fill-opacity="0.10"/>
  <rect x="90" y="470" width="1020" height="119" rx="28" fill="#000000" fill-opacity="0.18"/>
</svg>

